{
  "accessors": [
    {
      "bufferView": 2,
      "componentType": 5126,
      "count": 2598,
      "max": [
        0.41569766402244568,
        0.41854816675186157,
        0.97230559587478638
      ],
      "min": [
        -0.4359930157661438,
        -0.43314251303672791,
        -1.4710608720779419
      ],
      "type": "VEC3"
    },
    {
      "bufferView": 2,
      "byteOffset": 31176,
      "componentType": 5126,
      "count": 2598,
      "max": [
        1,
        1,
        1
      ],
      "min": [
        -1,
        -1,
        -1
      ],
      "type": "VEC3"
    },
    {
      "bufferView": 1,
      "componentType": 5126,
      "count": 2598,
      "max": [
        0.99630135297775269,
        0.99155282974243164
      ],
      "min": [
        0.0016178512014448643,
        0.0081892218440771103
      ],
      "type": "VEC2"
    },
    {
      "bufferView": 0,
      "componentType": 5125,
      "count": 3960,
      "max": [
        2597
      ],
      "min": [
        0
      ],
      "type": "SCALAR"
    },
    {
      "bufferView": 2,
      "byteOffset": 62352,
      "componentType": 5126,
      "count": 559,
      "max": [
        1.0327049493789673,
        0.98210477828979492,
        2.666456937789917
      ],
      "min": [
        -1.0689235925674438,
        -1.0831537246704102,
        -1.0621328353881836
      ],
      "type": "VEC3"
    },
    {
      "bufferView": 2,
      "byteOffset": 69060,
      "componentType": 5126,
      "count": 559,
      "max": [
        0.99398589134216309,
        0.99976980686187744,
        0.98871570825576782
      ],
      "min": [
        -0.99050599336624146,
        -0.99510288238525391,
        -0.999969482421875
      ],
      "type": "VEC3"
    },
    {
      "bufferView": 1,
      "byteOffset": 20784,
      "componentType": 5126,
      "count": 559,
      "max": [
        1.0000002384185791,
        1
      ],
      "min": [
        0,
        0
      ],
      "type": "VEC2"
    },
    {
      "bufferView": 0,
      "byteOffset": 15840,
      "componentType": 5125,
      "count": 2880,
      "max": [
        558
      ],
      "min": [
        0
      ],
      "type": "SCALAR"
    },
    {
      "bufferView": 3,
      "componentType": 5126,
      "count": 118,
      "max": [
        2.4583332538604736
      ],
      "min": [
        0
      ],
      "type": "SCALAR"
    },
    {
      "bufferView": 4,
      "componentType": 5126,
      "count": 118,
      "max": [
        0,
        88.159988403320312,
        0
      ],
      "min": [
        0,
        0,
        0
      ],
      "type": "VEC3"
    }
  ],
  "animations": [
    {
      "channels": [
        {
          "sampler": 0,
          "target": {
            "node": 14,
            "path": "translation"
          }
        }
      ],
      "name": "Empty|EmptyAction",
      "samplers": [
        {
          "input": 8,
          "interpolation": "LINEAR",
          "output": 9
        }
      ]
    }
  ],
  "asset": {
    "extras": {
      "author": "arifinxhabibie (https://sketchfab.com/arifinxhabibie)",
      "license": "CC-BY-4.0 (http://creativecommons.org/licenses/by/4.0/)",
      "source": "https://sketchfab.com/3d-models/street-lighting-torch-d66937cc78f1452194fb3b8d8c9753f6",
      "title": "Street lighting torch"
    },
    "generator": "Sketchfab-10.35.0",
    "version": "2.0"
  },
  "bufferViews": [
    {
      "buffer": 0,
      "byteLength": 27360,
      "byteOffset": 0,
      "name": "floatBufferViews",
      "target": 34963
    },
    {
      "buffer": 0,
      "byteLength": 25256,
      "byteOffset": 27360,
      "byteStride": 8,
      "name": "floatBufferViews",
      "target": 34962
    },
    {
      "buffer": 0,
      "byteLength": 75768,
      "byteOffset": 52616,
      "byteStride": 12,
      "name": "floatBufferViews",
      "target": 34962
    },
    {
      "buffer": 0,
      "byteLength": 472,
      "byteOffset": 128384,
      "name": "floatBufferViews"
    },
    {
      "buffer": 0,
      "byteLength": 1416,
      "byteOffset": 128856,
      "byteStride": 12,
      "name": "floatBufferViews"
    }
  ],
  "buffers": [
    {
      "byteLength": 130272,
      "uri": "scene.bin"
    }
  ],
  "images": [
    {
      "uri": "textures/bata_baseColor.png"
    }
  ],
  "materials": [
    {
      "doubleSided": true,
      "emissiveFactor": [
        0,
        0,
        0
      ],
      "name": "bata",
      "pbrMetallicRoughness": {
        "baseColorFactor": [
          1,
          1,
          1,
          1
        ],
        "baseColorTexture": {
          "index": 0,
          "texCoord": 0
        },
        "metallicFactor": 0,
        "roughnessFactor": 0.83412527588785723
      }
    },
    {
      "doubleSided": true,
      "emissiveFactor": [
        1,
        0.58525169047553038,
        0
      ],
      "name": "Material.001",
      "pbrMetallicRoughness": {
        "baseColorFactor": [
          1,
          0.36625259559883949,
          0,
          1
        ],
        "metallicFactor": 0,
        "roughnessFactor": 0.80404082057734572
      }
    }
  ],
  "meshes": [
    {
      "name": "Cube.001_bata_0",
      "primitives": [
        {
          "attributes": {
            "NORMAL": 1,
            "POSITION": 0,
            "TEXCOORD_0": 2
          },
          "indices": 3,
          "material": 0,
          "mode": 4
        }
      ]
    },
    {
      "name": "Sphere_Material.001_0",
      "primitives": [
        {
          "attributes": {
            "NORMAL": 5,
            "POSITION": 4,
            "TEXCOORD_0": 6
          },
          "indices": 7,
          "material": 1,
          "mode": 4
        }
      ]
    }
  ],
  "nodes": [
    {
      "children": [
        1
      ],
      "name": "RootNode (gltf orientation matrix)",
      "rotation": [
        -0.70710678118654746,
        -0,
        -0,
        0.70710678118654757
      ]
    },
    {
      "children": [
        2
      ],
      "name": "RootNode (model correction matrix)"
    },
    {
      "children": [
        3
      ],
      "matrix": [
        1,
        0,
        0,
        0,
        0,
        0,
        1,
        0,
        0,
        -1,
        0,
        0,
        0,
        0,
        0,
        1
      ],
      "name": "112b7c27b4ac4314899ee2cf138a30a3.fbx"
    },
    {
      "children": [
        4
      ],
      "name": ""
    },
    {
      "children": [
        5,
        8,
        10,
        12,
        14,
        15,
        18,
        20
      ],
      "name": "RootNode"
    },
    {
      "children": [
        6
      ],
      "name": "Light",
      "rotation": [
        0.16907571256160736,
        0.75588035583496094,
        -0.27217131853103638,
        0.57094746828079224
      ],
      "scale": [
        100.00000762939453,
        100,
        100
      ],
      "translation": [
        407.62454223632812,
        590.38623046875,
        -100.54539489746094
      ]
    },
    {
      "children": [
        7
      ],
      "matrix": [
        1,
        0,
        0,
        0,
        0,
        2.2204460492503131e-16,
        1,
        0,
        0,
        -1,
        2.2204460492503131e-16,
        0,
        0,
        0,
        0,
        1
      ],
      "name": ""
    },
    {
      "name": ""
    },
    {
      "children": [
        9
      ],
      "name": "Camera",
      "rotation": [
        -0.15150304138660431,
        0.82374995946884155,
        -0.10217998176813126,
        0.53669553995132446
      ],
      "scale": [
        100.00000762939453,
        99.999992370605469,
        99.999992370605469
      ],
      "translation": [
        259.90911865234375,
        392.48446655273438,
        634.4344482421875
      ]
    },
    {
      "name": ""
    },
    {
      "children": [
        11
      ],
      "name": "Cube.001",
      "rotation": [
        -0.7071068286895752,
        0,
        0,
        0.70710670948028564
      ],
      "scale": [
        100,
        100,
        100
      ],
      "translation": [
        0,
        148.54046630859375,
        0
      ]
    },
    {
      "mesh": 0,
      "name": "Cube.001_bata_0"
    },
    {
      "children": [
        13
      ],
      "name": "Sphere",
      "rotation": [
        -0.7071068286895752,
        0,
        0,
        0.70710670948028564
      ],
      "scale": [
        9.7917366027832031,
        10.337538719177246,
        8.9583349227905273
      ],
      "translation": [
        -1.0684050321578979,
        186.792236328125,
        2.0875399112701416
      ]
    },
    {
      "mesh": 1,
      "name": "Sphere_Material.001_0"
    },
    {
      "name": "Empty",
      "rotation": [
        -0.7071068286895752,
        0,
        0,
        0.70710670948028564
      ],
      "scale": [
        18.466878890991211,
        18.466878890991211,
        18.466878890991211
      ],
      "translation": [
        0,
        0.30725324153900146,
        0
      ]
    },
    {
      "children": [
        16
      ],
      "name": "Point",
      "rotation": [
        -3.7748950632021661e-08,
        -0,
        0,
        1
      ],
      "scale": [
        100,
        100,
        100
      ],
      "translation": [
        0,
        194.96856689453125,
        0
      ]
    },
    {
      "children": [
        17
      ],
      "matrix": [
        1,
        0,
        0,
        0,
        0,
        2.2204460492503131e-16,
        1,
        0,
        0,
        -1,
        2.2204460492503131e-16,
        0,
        0,
        0,
        0,
        1
      ],
      "name": ""
    },
    {
      "name": ""
    },
    {
      "children": [
        19
      ],
      "name": "Camera.001",
      "rotation": [
        0.011494776234030724,
        -0.14246626198291779,
        -0.059637680649757385,
        0.98793452978134155
      ],
      "scale": [
        100.00000762939453,
        100,
        100.00000762939453
      ],
      "translation": [
        -494.34603881835938,
        211.40281677246094,
        -154.72334289550781
      ]
    },
    {
      "name": ""
    },
    {
      "children": [
        21
      ],
      "name": "Camera.002",
      "rotation": [
        0.046837646514177322,
        -0.73891997337341309,
        -0.038665473461151123,
        0.6710503101348877
      ],
      "scale": [
        100,
        100,
        100
      ],
      "translation": [
        74.938163757324219,
        218.97892761230469,
        -779.92706298828125
      ]
    },
    {
      "name": ""
    }
  ],
  "samplers": [
    {
      "magFilter": 9729,
      "minFilter": 9987,
      "wrapS": 10497,
      "wrapT": 10497
    }
  ],
  "scene": 0,
  "scenes": [
    {
      "name": "OSG_Scene",
      "nodes": [
        0
      ]
    }
  ],
  "textures": [
    {
      "sampler": 0,
      "source": 0
    }
  ]
}

